<?xml version="1.0" encoding="UTF-8"?>
<svg height="128px" viewBox="0 0 128 128" width="128px" xmlns="http://www.w3.org/2000/svg">
    <path d="m 58.46875 92.25 c 0 13.117188 -10.4375 23.75 -23.308594 23.75 c -12.875 0 -23.3125 -10.632812 -23.3125 -23.75 s 10.4375 -23.75 23.3125 -23.75 c 12.871094 0 23.308594 10.632812 23.308594 23.75 z m 0 0" fill="#c0bfbc"/>
    <path d="m 97.75 69.589844 c 0 18.386718 -14.730469 33.292968 -32.898438 33.292968 c -18.171874 0 -32.902343 -14.90625 -32.902343 -33.292968 c 0 -18.386719 14.730469 -33.289063 32.902343 -33.289063 c 18.167969 0 32.898438 14.902344 32.898438 33.289063 z m 0 0" fill="#c0bfbc"/>
    <path d="m 120.175781 89.160156 c 0 14.851563 -11.628906 26.890625 -25.976562 26.890625 c -14.34375 0 -25.972657 -12.039062 -25.972657 -26.890625 c 0 -14.847656 11.628907 -26.886718 25.972657 -26.886718 c 14.347656 0 25.976562 12.039062 25.976562 26.886718 z m 0 0" fill="#c0bfbc"/>
    <path d="m 35.441406 100.113281 h 58.269532 v 15.882813 h -58.269532 z m 0 0" fill="#c0bfbc"/>
    <g fill="#f6f5f4">
        <path d="m 58.46875 89.164062 c 0 13.117188 -10.4375 23.746094 -23.3125 23.746094 c -12.871094 0 -23.308594 -10.628906 -23.308594 -23.746094 c 0 -13.117187 10.4375 -23.75 23.308594 -23.75 c 12.875 0 23.3125 10.632813 23.3125 23.75 z m 0 0"/>
        <path d="m 104.515625 44.238281 c 6.859375 9.703125 6.175781 21.984375 -1.53125 27.429688 c -7.703125 5.445312 -19.511719 1.992187 -26.371094 -7.710938 c -6.859375 -9.707031 -6.175781 -21.988281 1.53125 -27.433593 c 7.703125 -5.445313 19.511719 -1.992188 26.371094 7.714843 z m 0 0"/>
        <path d="m 90.597656 60.574219 c 0 17.988281 -14.597656 32.574219 -32.605468 32.574219 c -18.007813 0 -32.605469 -14.585938 -32.605469 -32.574219 c 0 -17.992188 14.597656 -32.574219 32.605469 -32.574219 c 18.007812 0 32.605468 14.582031 32.605468 32.574219 z m 0 0"/>
        <path d="m 120.175781 86.027344 c 0 14.847656 -11.628906 26.886718 -25.976562 26.886718 c -14.34375 0 -25.976563 -12.039062 -25.976563 -26.886718 c 0 -14.851563 11.632813 -26.890625 25.976563 -26.890625 c 14.347656 0 25.976562 12.039062 25.976562 26.890625 z m 0 0"/>
        <path d="m 35.441406 91.507812 h 58.269532 v 21.402344 h -58.269532 z m 0 0"/>
    </g>
    <path d="m 85.714844 64.175781 v 24.558594 l -20.875 12.28125 v -24.558594 z m 0 0" fill="#1a5fb4"/>
    <path d="m 64.839844 76.457031 v -24.5625 l -20.878906 12.28125 z m 0 0" fill="#1a5fb4"/>
    <path d="m 44.894531 60.625 c -2.160156 1.269531 -3.484375 3.609375 -3.484375 6.148438 v 19.363281 c 0 2.539062 1.324219 4.878906 3.484375 6.148437 l 16.457031 9.683594 c 2.160157 1.269531 4.8125 1.269531 6.972657 0 l 16.457031 -9.683594 c 2.160156 -1.269531 3.484375 -3.609375 3.484375 -6.148437 v -19.363281 c 0 -2.539063 -1.324219 -4.878907 -3.484375 -6.148438 l -16.457031 -9.679688 c -2.160157 -1.273437 -4.8125 -1.273437 -6.972657 0 z m 20.878907 -5.179688 l 16.457031 9.679688 c 0.574219 0.339844 0.933593 0.972656 0.933593 1.648438 v 19.363281 c 0 0.675781 -0.359374 1.308593 -0.933593 1.648437 l -16.457031 9.679688 c -0.578126 0.339844 -1.292969 0.339844 -1.867188 0 l -16.460938 -9.679688 c -0.574218 -0.339844 -0.933593 -0.972656 -0.933593 -1.648437 v -19.363281 c 0 -0.675782 0.359375 -1.308594 0.933593 -1.648438 l 16.460938 -9.679688 c 0.574219 -0.335937 1.289062 -0.335937 1.867188 0 z m 0 0" fill="#1a5fb4"/>
</svg>
